# FreeCAD v0.20 build2 Arch module
# http://www.freecadweb.org
mtllib VUT_FIT_L207-Body.mtl
o Body
usemtl color_cccccc
v 0.0 0.0 0.0
v 4.585 0.0 0.0
v 0.0 0.0 6.903
v 4.585 0.0 6.903
v 4.585 3.144 0.0
v 4.585 3.144 6.903
v 0.0 3.144 0.0
v 0.0 3.144 6.903
vn 0.0 -1.0 0.0
vn 0.0 -1.0 0.0
vn 1.0 0.0 0.0
vn 1.0 -0.0 0.0
vn 0.0 1.0 -0.0
vn 0.0 1.0 0.0
vn -1.0 0.0 0.0
vn -1.0 -0.0 0.0
vn 0.0 0.0 -1.0
vn 0.0 0.0 -1.0
vn 0.0 0.0 1.0
vn 0.0 0.0 1.0
f 1//1 2//1 3//1 
f 3//2 2//2 4//2 
f 2//3 5//3 4//3 
f 4//4 5//4 6//4 
f 5//5 7//5 6//5 
f 6//6 7//6 8//6 
f 7//7 1//7 8//7 
f 8//8 1//8 3//8 
f 1//9 5//9 2//9 
f 7//10 5//10 1//10 
f 6//11 3//11 4//11 
f 6//12 8//12 3//12 
