# FreeCAD v0.20 build2 Arch module
# http://www.freecadweb.org
mtllib VUT_FIT_Q301-Body.mtl
o Body
usemtl color_cccccc
v 0.0 0.0 0.0
v 10.776 0.0 0.0
v 0.0 0.0 6.94
v 10.776 0.0 6.94
v 10.776 2.598 0.0
v 10.776 2.598 6.94
v 0.0 2.598 0.0
v 0.0 2.598 6.94
vn 0.0 -1.0 0.0
vn 0.0 -1.0 0.0
vn 1.0 0.0 0.0
vn 1.0 -0.0 0.0
vn 0.0 1.0 -0.0
vn 0.0 1.0 0.0
vn -1.0 0.0 0.0
vn -1.0 -0.0 0.0
vn 0.0 0.0 -1.0
vn 0.0 0.0 -1.0
vn 0.0 0.0 1.0
vn 0.0 0.0 1.0
f 1//1 2//1 3//1 
f 3//2 2//2 4//2 
f 2//3 5//3 4//3 
f 4//4 5//4 6//4 
f 5//5 7//5 6//5 
f 6//6 7//6 8//6 
f 7//7 1//7 8//7 
f 8//8 1//8 3//8 
f 7//9 2//9 1//9 
f 7//10 5//10 2//10 
f 4//11 8//11 3//11 
f 6//12 8//12 4//12 
